<?xml version="1.0" encoding="utf-8"?><svg fill="none" viewBox="0 0 1600 1200" xmlns="http://www.w3.org/2000/svg"><defs><clipPath id="cp-1600-1200"><rect height="1200" width="1600" y="0" x="0" /></clipPath><g id="comp_0"><g transform="matrix(1.5,0,0,1.5,593.625,339.615)" visibility="hidden" id="外"><animate repeatCount="indefinite" begin="0.033s" calcMode="discrete" fill="freeze" dur="0.5s" values="visible; hidden" keyTimes="0; 1" attributeName="visibility" /><g id="组 1" transform="matrix(1,0,0,1,136.25,162.654)"><path fill="#3197fe" fill-opacity="1" d="M2,162.404C-50,162.404,-152,122.305,-152,26.404C-152,-4.596,-145,-55.904,-114,-98.25C-83,-140.596,-39,-165.904,-9,-158.25C21,-150.596,-8.284,-109.558,34,-66.25C61,-38.597,100,-15.597,118,19.403C153,121.403,54,162.404,2,162.404Z" /></g><g id="形状 1"><path stroke-linejoin="miter" stroke-linecap="butt" stroke-width="4" stroke-opacity="1" stroke="#6bceff" fill="#3197fe" fill-opacity="1" d="" /></g></g><g transform="matrix(1.5,0,0,1.5,593.625,339.615)" visibility="hidden" id="外 2"><animate repeatCount="indefinite" begin="0.533s" calcMode="discrete" fill="freeze" dur="0.5s" values="visible; hidden" keyTimes="0; 1" attributeName="visibility" /><g id="组 1" transform="matrix(1,0,0,1,136.25,162.654)"><path fill="#3197fe" fill-opacity="1" d="M2,162.404C-50,162.404,-152,122.305,-152,26.404C-152,-4.596,-145,-55.904,-114,-98.25C-83,-140.596,-39,-165.904,-9,-158.25C21,-150.596,-8.284,-109.558,34,-66.25C61,-38.597,100,-15.597,118,19.403C153,121.403,54,162.404,2,162.404Z" /></g><g id="形状 1"><path stroke-linejoin="miter" stroke-linecap="butt" stroke-width="4" stroke-opacity="1" stroke="#6bceff" fill="#3197fe" fill-opacity="1" d="" /></g></g><g transform="matrix(1.5,0,0,1.5,593.625,339.615)" visibility="hidden" id="外 3"><animate repeatCount="indefinite" begin="1.033s" calcMode="discrete" fill="freeze" dur="0.5s" values="visible; hidden" keyTimes="0; 1" attributeName="visibility" /><g id="组 1" transform="matrix(1,0,0,1,136.25,162.654)"><path fill="#3197fe" fill-opacity="1" d="M2,162.404C-50,162.404,-152,122.305,-152,26.404C-152,-4.596,-145,-55.904,-114,-98.25C-83,-140.596,-39,-165.904,-9,-158.25C21,-150.596,-8.284,-109.558,34,-66.25C61,-38.597,100,-15.597,118,19.403C153,121.403,54,162.404,2,162.404Z" /></g><g id="形状 1"><path stroke-linejoin="miter" stroke-linecap="butt" stroke-width="4" stroke-opacity="1" stroke="#6bceff" fill="#3197fe" fill-opacity="1" d="" /></g></g><g transform="matrix(1.5,0,0,1.5,593.625,339.615)" visibility="hidden" id="外 4"><animate repeatCount="indefinite" begin="1.533s" calcMode="discrete" fill="freeze" dur="0.5s" values="visible; hidden" keyTimes="0; 1" attributeName="visibility" /><g id="组 1" transform="matrix(1,0,0,1,136.25,162.654)"><path fill="#3197fe" fill-opacity="1" d="M2,162.404C-50,162.404,-152,122.305,-152,26.404C-152,-4.596,-145,-55.904,-114,-98.25C-83,-140.596,-39,-165.904,-9,-158.25C21,-150.596,-8.284,-109.558,34,-66.25C61,-38.597,100,-15.597,118,19.403C153,121.403,54,162.404,2,162.404Z" /></g><g id="形状 1"><path stroke-linejoin="miter" stroke-linecap="butt" stroke-width="4" stroke-opacity="1" stroke="#6bceff" fill="#3197fe" fill-opacity="1" d="" /></g></g><g transform="matrix(1.7,0,0,1.7,658.475,452.825)" visibility="hidden" id="内 2"><animate repeatCount="indefinite" begin="0.033s" calcMode="discrete" fill="freeze" dur="0.5s" values="visible; hidden" keyTimes="0; 1" attributeName="visibility" /><g id="组 1" transform="matrix(1,0,0,1,83.25,92.75)"><path fill="#ffffff" fill-opacity="1" d="M83,32.5C83,-3.5,67,-7.333,42,-28.333C17,-49.333,17.951,-66.25,-1.333,-66.25C-16.791,-66.25,-53.75,-47.917,-67.196,-25.143C-81.999,-0.07,-83,6.452,-83,32.5C-83,71.16,-45.84,92.5,0,92.5C45.84,92.5,83,71.16,83,32.5Z" /></g></g><g transform="matrix(1.7,0,0,1.7,658.475,452.825)" visibility="hidden" id="内 3"><animate repeatCount="indefinite" begin="0.533s" calcMode="discrete" fill="freeze" dur="0.5s" values="visible; hidden" keyTimes="0; 1" attributeName="visibility" /><g id="组 1" transform="matrix(1,0,0,1,83.25,92.75)"><path fill="#ffffff" fill-opacity="1" d="M83,32.5C83,-3.5,67,-7.333,42,-28.333C17,-49.333,17.951,-66.25,-1.333,-66.25C-16.791,-66.25,-53.75,-47.917,-67.196,-25.143C-81.999,-0.07,-83,6.452,-83,32.5C-83,71.16,-45.84,92.5,0,92.5C45.84,92.5,83,71.16,83,32.5Z" /></g></g><g transform="matrix(1.7,0,0,1.7,658.475,452.825)" visibility="hidden" id="内 4"><animate repeatCount="indefinite" begin="1.033s" calcMode="discrete" fill="freeze" dur="0.5s" values="visible; hidden" keyTimes="0; 1" attributeName="visibility" /><g id="组 1" transform="matrix(1,0,0,1,83.25,92.75)"><path fill="#ffffff" fill-opacity="1" d="M83,32.5C83,-3.5,67,-7.333,42,-28.333C17,-49.333,17.951,-66.25,-1.333,-66.25C-16.791,-66.25,-53.75,-47.917,-67.196,-25.143C-81.999,-0.07,-83,6.452,-83,32.5C-83,71.16,-45.84,92.5,0,92.5C45.84,92.5,83,71.16,83,32.5Z" /></g></g><g transform="matrix(1.7,0,0,1.7,658.475,452.825)" visibility="hidden" id="内 5"><animate repeatCount="indefinite" begin="1.533s" calcMode="discrete" fill="freeze" dur="0.5s" values="visible; hidden" keyTimes="0; 1" attributeName="visibility" /><g id="组 1" transform="matrix(1,0,0,1,83.25,92.75)"><path fill="#ffffff" fill-opacity="1" d="M83,32.5C83,-3.5,67,-7.333,42,-28.333C17,-49.333,17.951,-66.25,-1.333,-66.25C-16.791,-66.25,-53.75,-47.917,-67.196,-25.143C-81.999,-0.07,-83,6.452,-83,32.5C-83,71.16,-45.84,92.5,0,92.5C45.84,92.5,83,71.16,83,32.5Z" /></g></g></g></defs><g id="body"><g transform="translate(800,545)"><animateTransform repeatCount="indefinite" type="translate" attributeName="transform" dur="2s" begin="0.033s" calcMode="spline" values="800 545; 800 665; 800 545" keyTimes="0; 0.5; 1" keySplines="0.5 0 0.5 1; 0.5 0 0.5 1" fill="freeze" /><g transform="scale(1.5,1.5) translate(-800,-600)"><use clip-path="url(#cp-1600-1200)" height="1200" width="1600" y="0" x="0" xlink:href="#comp_0" href="#comp_0" /></g></g></g><g id="body"><g transform="translate(800,545)"><animateTransform repeatCount="indefinite" type="translate" attributeName="transform" dur="2s" begin="0.033s" calcMode="spline" values="800 545; 800 665; 800 545" keyTimes="0; 0.5; 1" keySplines="0.5 0 0.5 1; 0.5 0 0.5 1" fill="freeze" /><g transform="scale(1.5,1.5) translate(-800,-600)"><g id="右眼"><g transform="translate(740,660)"><g transform="scale(1.5,1.5)"><animateTransform repeatCount="indefinite" type="scale" attributeName="transform" dur="0.667s" begin="0.033s" calcMode="spline" values="1.5 1.5; 1.5 0.3; 1.5 1.5; 1.5 0.3; 1.5 1.5" keyTimes="0; 0.25; 0.5; 0.75; 1" keySplines="0 0 1 1; 0 0 1 1; 0 0 1 1; 0 0 1 1" fill="freeze" /><g transform="translate(-8.25,-17.25)"><g id="组 1" transform="matrix(1,0,0,1,8.25,17.25)"><path fill="#44321e" fill-opacity="1" d="M0,17L0,17C-4.418,17,-8,13.418,-8,9L-8,-9C-8,-13.418,-4.418,-17,0,-17C4.418,-17,8,-13.418,8,-9L8,9C8,13.418,4.418,17,0,17Z" /></g></g></g></g></g></g></g></g><g id="body"><g transform="translate(800,545)"><animateTransform repeatCount="indefinite" type="translate" attributeName="transform" dur="2s" begin="0.033s" calcMode="spline" values="800 545; 800 665; 800 545" keyTimes="0; 0.5; 1" keySplines="0.5 0 0.5 1; 0.5 0 0.5 1" fill="freeze" /><g transform="scale(1.5,1.5) translate(-800,-600)"><g id="左眼"><g transform="translate(860,660)"><g transform="scale(1.5,1.5)"><animateTransform repeatCount="indefinite" type="scale" attributeName="transform" dur="0.667s" begin="0.033s" calcMode="spline" values="1.5 1.5; 1.5 0.3; 1.5 1.5; 1.5 0.3; 1.5 1.5" keyTimes="0; 0.25; 0.5; 0.75; 1" keySplines="0 0 1 1; 0 0 1 1; 0 0 1 1; 0 0 1 1" fill="freeze" /><g transform="translate(-8.25,-17.25)"><g id="组 1" transform="matrix(1,0,0,1,8.25,17.25)"><path fill="#44321e" fill-opacity="1" d="M0,17L0,17C-4.418,17,-8,13.418,-8,9L-8,-9C-8,-13.418,-4.418,-17,0,-17C4.418,-17,8,-13.418,8,-9L8,9C8,13.418,4.418,17,0,17Z" /></g></g></g></g></g></g></g></g></svg>