<?xml version="1.0" encoding="utf-8"?><svg fill="none" viewBox="0 0 170.46653170530777 241.39538741176426" xmlns="http://www.w3.org/2000/svg"><defs><clipPath id="cp-164-224"><rect height="224" width="164" y="0" x="0" /></clipPath><clipPath id="cp-17-17"><rect height="17" width="17" y="0" x="0" /></clipPath><g id="precomp_Shape Layer - SVG_R6gNZvmrx3_16742c1d-9a73-4904-b9b8-46f2e2cb711f"><g transform="matrix(1,0,0,1,0,0)" id="Shape Layer 1"><g id="Group 1" transform="matrix(1,0,0,1,0,0)"><path stroke-linejoin="miter" stroke-linecap="butt" stroke-width="0.65" stroke-opacity="1" stroke="#000000" fill="#ffffff" fill-opacity="1" d="M9.53,6.65L9.58,6.84L9.77,6.89L15.07,8.21L9.77,9.53L9.58,9.58L9.53,9.77L8.21,15.07L6.89,9.77L6.84,9.58L6.65,9.53L1.35,8.21L6.65,6.89L6.84,6.84L6.89,6.65L8.21,1.35L9.53,6.65L9.53,6.65Z" /></g></g></g><g id="precomp_Shape Layer - SVG_R6gNZvmrx3_16742c1d-9a73-4904-b9b8-46f2e2cb711f"><g transform="matrix(1,0,0,1,0,0)" id="Shape Layer 1"><g id="Group 1" transform="matrix(1,0,0,1,0,0)"><path stroke-linejoin="miter" stroke-linecap="butt" stroke-width="0.65" stroke-opacity="1" stroke="#000000" fill="#ffffff" fill-opacity="1" d="M9.53,6.65L9.58,6.84L9.77,6.89L15.07,8.21L9.77,9.53L9.58,9.58L9.53,9.77L8.21,15.07L6.89,9.77L6.84,9.58L6.65,9.53L1.35,8.21L6.65,6.89L6.84,6.84L6.89,6.65L8.21,1.35L9.53,6.65L9.53,6.65Z" /></g></g></g><g id="precomp_Shape Layer - SVG_NLQ1royEVj_8df41059-b0d0-4ed3-b0ff-655c343209f5"><g transform="matrix(1,0,0,1,35.342,50.127)" id="Shape Layer 1"><g><g transform="translate(49.172,123.078)"><g transform="rotate(1)"><animateTransform repeatCount="indefinite" type="rotate" attributeName="transform" dur="2s" begin="0s" calcMode="spline" values="1; -1; 1; -3; 1" keyTimes="0; 0.167; 0.35; 0.633; 1" keySplines="0.55 0.06 0.36 1; 0.65 0 0.36 1; 0.55 0.06 0.36 1; 0.65 0 0.36 1" fill="freeze" /><g transform="scale(1,1)"><animateTransform repeatCount="indefinite" type="scale" attributeName="transform" dur="2s" begin="0s" calcMode="spline" values="1 1; 1 0.92; 1 0.99; 1 0.97; 1 1.06; 1 0.95; 1 1" keyTimes="0; 0.133; 0.333; 0.5; 0.65; 0.817; 1" keySplines="0.55 0.06 0.36 1; 0.65 0 0.36 1; 0.65 0 0.36 1; 0.65 0 0.36 1; 0.65 0 0.36 1; 0.65 0 0.36 1" fill="freeze" /><g id="Group 1" transform="translate(-49.172,-123.078)"><g id="Group 5" transform="matrix(1,0,0,1,0,0)"><path stroke-linejoin="round" stroke-linecap="butt" stroke-width="1" stroke-opacity="1" stroke="#000000" fill="#ffed80" fill-opacity="1" d="M91.36,86.28C89.89,115.33,63.48,122.58,50.46,122.58C31.62,122.58,15.54,108.33,12.78,89.49C10.02,70.65,20.59,58.24,30.7,49.97C40.81,41.7,40.81,32.97,41.27,31.59C41.73,30.21,41.27,25.15,44.03,24.23C46.24,23.49,49.54,25.15,50.92,26.07C66.73,36.36,68.24,56.4,67.01,65.13C68.39,63.75,70.22,61,73.44,55.94C76.01,51.9,80.02,54.87,81.71,56.86C90.44,66.97,91.82,80,91.36,86.28L91.36,86.28Z" /></g><g id="Group 4" transform="matrix(1,0,0,1,0,0)"><path stroke-linejoin="round" stroke-linecap="butt" stroke-width="1" stroke-opacity="1" stroke="#000000" fill="#f58738" fill-opacity="1" d="M86.77,82.61C85.3,111.66,58.89,118.92,45.87,118.92C27.03,118.92,10.94,104.67,8.18,85.83C5.42,66.99,15.99,54.58,26.1,46.31C36.21,38.04,36.22,29.3,36.68,27.92C37.14,26.54,36.67,21.49,39.43,20.57C41.64,19.83,44.95,21.48,46.33,22.4C62.14,32.69,63.64,52.74,62.41,61.47C63.79,60.09,65.63,57.34,68.85,52.28C71.42,48.24,75.43,51.21,77.12,53.2C85.85,63.31,87.23,76.33,86.77,82.61L86.77,82.61Z" /></g></g></g></g></g></g><g><g transform="translate(47.477,112.493)"><g transform="rotate(1)"><animateTransform repeatCount="indefinite" type="rotate" attributeName="transform" dur="2s" begin="0s" calcMode="spline" values="1; 2; 2; -2; 1; 1" keyTimes="0; 0.2; 0.4; 0.617; 0.817; 1" keySplines="0.55 0.06 0.36 1; 0.65 0 0.36 1; 0.55 0.06 0.36 1; 0.65 0 0.36 1; 0.65 0 0.36 1" fill="freeze" /><g transform="scale(1,1)"><animateTransform repeatCount="indefinite" type="scale" attributeName="transform" dur="2s" begin="0s" calcMode="spline" values="1 1; 1 0.95; 1 0.99; 1 0.95; 1 0.98; 1 1" keyTimes="0; 0.25; 0.417; 0.617; 0.8; 1" keySplines="0.55 0.06 0.36 1; 0.65 0 0.36 1; 0.65 0 0.36 1; 0.65 0 0.36 1; 0.65 0 0.36 1" fill="freeze" /><g id="Group 3" transform="translate(-47.477,-113)"><path stroke-linejoin="round" stroke-linecap="butt" stroke-width="1" stroke-opacity="1" stroke="#000000" fill="#ffed80" fill-opacity="1" d="M25,91.97C25.83,108.4,40.72,112.51,48.06,112.51C58.68,112.51,67.76,104.45,69.31,93.79C70.86,83.13,64.9,76.1,59.2,71.42C53.5,66.74,53.5,61.8,53.24,61.02C52.98,60.24,53.24,57.38,51.69,56.86C50.45,56.44,48.58,57.38,47.8,57.9C38.89,63.72,38.04,75.06,38.73,80C37.95,79.22,36.92,77.66,35.11,74.8C33.66,72.51,31.39,74.19,30.44,75.32C25.52,81.04,24.74,88.42,25,91.97L25,91.97Z" /></g></g></g></g></g></g><g transform="matrix(1,0,0,1,39.266,69.021)" id="Shape Layer 2"><g><g transform="translate(42.398,106.676)"><g transform="scale(1,1)"><animateTransform repeatCount="indefinite" type="scale" attributeName="transform" dur="1s" begin="0.233s" calcMode="spline" values="1 1; 0.83 0.76; 0.83 0.76; 1.31 1; 1 1" keyTimes="0; 0.3; 0.433; 0.7; 1" keySplines="0.55 0.06 0.36 1; 0.65 0 0.36 1; 0.65 0 0.36 1; 0.55 0.06 0.36 1" fill="freeze" /><g id="Group 6" transform="translate(-31.3,-120.485)"><path fill="#080808" fill-opacity="1" d="M31.3,125.23C48.59,125.23,62.6,123.1,62.6,120.48C62.6,117.86,48.59,115.74,31.3,115.74C14.01,115.74,0,117.86,0,120.48C0,123.1,14.01,125.23,31.3,125.23L31.3,125.23Z" /></g></g></g></g><g><g transform="translate(41.622,106.737)"><animateTransform repeatCount="indefinite" type="translate" attributeName="transform" dur="0.833s" begin="0.3s" calcMode="spline" values="41.622 106.737; 41.622 97.737; 41.622 109.737; 41.622 106.737" keyTimes="0; 0.32; 0.64; 1" keySplines="0.55 0.06 0.36 1; 0.65 0 0.36 1; 0.65 0 0.36 1" fill="freeze" /><g transform="rotate(1)"><animateTransform repeatCount="indefinite" type="rotate" attributeName="transform" dur="2s" begin="0s" calcMode="spline" values="1; -1; 1; -3; -1; 1; -3; 1; 6.525; -1; 1" keyTimes="0; 0.067; 0.167; 0.267; 0.383; 0.5; 0.583; 0.683; 0.817; 0.917; 1" keySplines="0.55 0.06 0.36 1; 0.65 0 0.36 1; 0.55 0.06 0.36 1; 0.65 0 0.36 1; 0.65 0 0.36 1; 0.55 0.06 0.36 1; 0.65 0 0.36 1; 0.55 0.06 0.36 1; 0.65 0 0.36 1; 0.65 0 0.36 1" fill="freeze" /><g transform="scale(1,1)"><animateTransform repeatCount="indefinite" type="scale" attributeName="transform" dur="2s" begin="0s" calcMode="spline" values="1 1; 1 0.92; 0.94 1.06; 1.06 0.9; 1 1.06; 1 0.95; 1 1" keyTimes="0; 0.133; 0.333; 0.5; 0.65; 0.817; 1" keySplines="0.55 0.06 0.36 1; 0.65 0 0.36 1; 0.65 0 0.36 1; 0.65 0 0.36 1; 0.65 0 0.36 1; 0.65 0 0.36 1" fill="freeze" /><g id="Group 1" transform="translate(-42.898,-104.172)"><g id="Group 5" transform="matrix(1,0,0,1,0,0)"><path stroke-linejoin="round" stroke-linecap="butt" stroke-width="1" stroke-opacity="1" stroke="#000000" fill="#ffed80" fill-opacity="1" d="M85.46,67.37C83.99,96.42,57.58,103.68,44.56,103.68C25.72,103.68,9.63,89.43,6.87,70.59C6.36,67.11,0.31,57.05,2,51.64C2.29,50.81,3.17,49.14,4.37,49.14C5.87,49.14,6.63,50.64,6.87,51.64C8.5,57.14,13.97,58.03,19.5,58.64C15.74,51.42,12.88,40.61,24.8,31.07C34.91,22.8,35.37,14.13,35.37,12.68C35.37,8.64,34.74,5.56,37.5,4.64C39.71,3.9,43.64,6.25,45.02,7.17C60.83,17.46,62.33,37.5,61.1,46.23C62.48,44.85,60.98,39.78,63,34.14C65.46,27.24,73,34.71,75.81,37.96C84.54,48.07,85.92,61.09,85.46,67.37L85.46,67.37Z" /></g><g id="Group 4" transform="matrix(1,0,0,1,0,0)"><path stroke-linejoin="round" stroke-linecap="butt" stroke-width="1" stroke-opacity="1" stroke="#000000" fill="#f58738" fill-opacity="1" d="M79.46,63.37C77.99,92.42,51.58,99.68,38.56,99.68C19.72,99.68,3.63,85.43,0.87,66.59C0.36,63.11,0.13,56.55,1.82,51.14C2.11,50.31,2.99,48.64,4.19,48.64C5.69,48.64,6.45,50.14,6.69,51.14C7.81,56.06,9.66,60.03,15.19,60.64C11.43,53.42,10.369,40.599,22.289,31.059C32.399,22.789,29.37,10.13,29.37,8.68C29.37,4.64,28.74,1.56,31.5,0.64C33.71,-0.1,37.64,2.25,39.02,3.17C40.4,4.09,54.087,14.277,53.808,29.407C52.578,38.137,58.929,29.897,60.949,24.257C62.969,18.617,69.831,27.001,72.641,30.251C80.781,42.445,79.92,57.09,79.46,63.37L79.46,63.37Z" /></g></g></g></g></g></g><g><g transform="translate(41.045,100.509)"><animateTransform repeatCount="indefinite" type="translate" attributeName="transform" dur="0.833s" begin="0.367s" calcMode="spline" values="41.045 100.509; 41.045 85.509; 41.045 100.509; 41.045 100.509" keyTimes="0; 0.32; 0.64; 1" keySplines="0.55 0.06 0.36 1; 0.65 0 0.36 1; 0.65 0 0.36 1" fill="freeze" /><g transform="rotate(1)"><animateTransform repeatCount="indefinite" type="rotate" attributeName="transform" dur="2s" begin="0s" calcMode="spline" values="1; 2; 2; -2; 1; 2; 2; -2; 1; 1" keyTimes="0; 0.1; 0.217; 0.317; 0.433; 0.533; 0.65; 0.75; 0.867; 1" keySplines="0.55 0.06 0.36 1; 0.65 0 0.36 1; 0.55 0.06 0.36 1; 0.65 0 0.36 1; 0.65 0 0.36 1; 0.65 0 0.36 1; 0.55 0.06 0.36 1; 0.65 0 0.36 1; 0.65 0 0.36 1" fill="freeze" /><g transform="scale(1,1)"><animateTransform repeatCount="indefinite" type="scale" attributeName="transform" dur="2s" begin="0s" calcMode="spline" values="1 1; 1 0.95; 1 0.98; 1 1" keyTimes="0; 0.35; 0.717; 1" keySplines="0.55 0.06 0.36 1; 0.65 0 0.36 1; 0.65 0 0.36 1" fill="freeze" /><g id="Group 3" transform="translate(-41.312,-96.953)"><path stroke-linejoin="round" stroke-linecap="butt" stroke-width="0" stroke-opacity="1" stroke="#000000" fill="#ffa35e" fill-opacity="1" d="M18.27,79.15C22.5,95.97,38.93,97.14,46.61,95.62C57.73,93.42,65.56,83.21,65.01,71.86C64.91,69.76,64.28,65.9,62.66,62.93C62.39,62.48,61.69,61.6,60.98,61.74C60.09,61.92,59.82,62.89,59.79,63.5C59.7,66.5,59.07,69.05,55.88,70.05C57.27,65.39,58,55.01,49.86,50.82C42.94,47.16,41.67,42.15,41.5,41.3C41.03,38.93,41.04,37.06,39.31,36.84C37.92,36.67,35.88,38.5,35.17,39.2C27.03,47.07,28.47,58.96,30.2,63.93C29.23,63.28,27.18,62.38,25.34,59.31C23.09,55.56,21.84,58.58,20.56,60.81C16.58,67.75,17.27,75.53,18.27,79.15L18.27,79.15Z" /></g></g></g></g></g><g><g transform="translate(42.359,97.554)"><animateTransform repeatCount="indefinite" type="translate" attributeName="transform" dur="0.933s" begin="0.4s" calcMode="spline" values="42.359 97.554; 42.359 79.554; 42.359 98.554; 42.359 97.554" keyTimes="0; 0.321; 0.643; 1" keySplines="0.55 0.06 0.36 1; 0.65 0 0.36 1; 0.65 0 0.36 1" fill="freeze" /><g transform="rotate(1)"><animateTransform repeatCount="indefinite" type="rotate" attributeName="transform" dur="2s" begin="0s" calcMode="spline" values="1; -1; 1; -3; -1; 6; -3; -1; 1; -3; -1; 6; -3; 1" keyTimes="0; 0.067; 0.133; 0.217; 0.3; 0.383; 0.45; 0.533; 0.6; 0.683; 0.767; 0.85; 0.917; 1" keySplines="0.55 0.06 0.36 1; 0.65 0 0.36 1; 0.55 0.06 0.36 1; 0.65 0 0.36 1; 0.65 0 0.36 1; 0.55 0.06 0.36 1; 0.65 0 0.36 1; 0.65 0 0.36 1; 0.55 0.06 0.36 1; 0.65 0 0.36 1; 0.65 0 0.36 1; 0.55 0.06 0.36 1; 0.65 0 0.36 1" fill="freeze" /><g transform="scale(1,1)"><animateTransform repeatCount="indefinite" type="scale" attributeName="transform" dur="2s" begin="0s" calcMode="spline" values="1 1; 1 1.05; 1 0.81; 1 0.97; 1 1.06; 1 0.87; 1 1" keyTimes="0; 0.133; 0.333; 0.5; 0.65; 0.817; 1" keySplines="0.55 0.06 0.36 1; 0.65 0 0.36 1; 0.65 0 0.36 1; 0.65 0 0.36 1; 0.65 0 0.36 1; 0.65 0 0.36 1" fill="freeze" /><g id="Group 2" transform="translate(-40.625,-93.625)"><path stroke-linejoin="round" stroke-linecap="butt" stroke-width="0" stroke-opacity="1" stroke="#000000" fill="#ffed80" fill-opacity="1" d="M27.53,80.98C28.01,90.71,36.69,93.14,40.97,93.14C47.16,93.14,52.44,88.37,53.35,82.06C54.26,75.75,50.78,71.59,47.46,68.82C44.14,66.05,44.14,63.13,43.99,62.67C43.84,62.21,43.99,60.51,43.08,60.2C42.36,59.95,41.27,60.51,40.82,60.82C35.62,64.27,35.13,70.98,35.53,73.9C35.08,73.44,34.48,72.51,33.42,70.82C32.57,69.47,31.25,70.46,30.7,71.13C27.83,74.52,27.38,78.88,27.53,80.98L27.53,80.98Z" /></g></g></g></g></g><g id="Group 1" transform="matrix(1,0,0,1,-2.995,-14.428)"><g opacity="0"><animate repeatCount="indefinite" attributeName="opacity" dur="0.9666666666666667s" begin="0s" calcMode="spline" values="0; 1; 1; 0" keyTimes="0; 0.069; 0.793; 1" keySplines="0.55 0.06 0.36 1; 0.65 0 0.36 1; 0.65 0 0.36 1" fill="freeze" /><g transform="translate(69.313,92.05)"><animateTransform repeatCount="indefinite" type="translate" attributeName="transform" dur="0.9s" begin="0.067s" calcMode="spline" values="69.313 92.05; 69.313 72.798" keyTimes="0; 1" keySplines="0.55 0.06 0.36 1" fill="freeze" /><g id="Group 10" transform="scale(0.364,0.348) translate(-14.477,-16.18)"><path stroke-linejoin="miter" stroke-linecap="butt" stroke-width="0" stroke-opacity="1" stroke="#000000" fill="#f9ae77" fill-opacity="1" d="M11.42,27.84C11.8,21.75,7.23,20.99,6.09,15.28C5.33,9.19,9.68,3.49,14.46,1.19C20.79,-1.86,14.46,4.24,19.79,10.71C25.12,17.18,23.06,24.62,19.03,28.23C13.93,32.8,11.04,33.93,11.42,27.84L11.42,27.84Z" /></g></g></g><g opacity="0"><animate repeatCount="indefinite" attributeName="opacity" dur="1.3s" begin="0s" calcMode="spline" values="0; 1; 1; 0" keyTimes="0; 0.308; 0.846; 1" keySplines="0.55 0.06 0.36 1; 0.65 0 0.36 1; 0.65 0 0.36 1" fill="freeze" /><g transform="translate(38.418,70.239)"><animateTransform repeatCount="indefinite" type="translate" attributeName="transform" dur="1s" begin="0.4s" calcMode="spline" values="38.418 70.239; 37.675 16.951" keyTimes="0; 1" keySplines="0.55 0.06 0.36 1" fill="freeze" /><g transform="scale(-0.634,0.516)"><animateTransform repeatCount="indefinite" type="scale" attributeName="transform" dur="1s" begin="0.4s" calcMode="spline" values="-0.634 0.516; -0.634 0.516; -0.634 0.516" keyTimes="0; 0.233; 1" keySplines="0.55 0.06 0.36 1; 0.65 0 0.36 1" fill="freeze" /><g id="Group 4" transform="translate(-14.477,-16.18)"><path stroke-linejoin="miter" stroke-linecap="butt" stroke-width="0" stroke-opacity="1" stroke="#000000" fill="#f9ae77" fill-opacity="1" d="M11.42,27.84C11.8,21.75,7.23,20.99,6.09,15.28C5.33,9.19,9.68,3.49,14.46,1.19C20.79,-1.86,14.46,4.24,19.79,10.71C25.12,17.18,23.06,24.62,19.03,28.23C13.93,32.8,11.04,33.93,11.42,27.84L11.42,27.84Z" /></g></g></g></g><g opacity="0"><animate repeatCount="indefinite" attributeName="opacity" dur="1.5666666666666667s" begin="0.26666666666666666s" calcMode="spline" values="0; 1; 1; 0" keyTimes="0; 0.255; 0.83; 1" keySplines="0.55 0.06 0.36 1; 0.65 0 0.36 1; 0.65 0 0.36 1" fill="freeze" /><g transform="translate(49.122,87.728)"><animateTransform repeatCount="indefinite" type="translate" attributeName="transform" dur="1.167s" begin="0.467s" calcMode="spline" values="49.122 87.728; 49.865 61.873" keyTimes="0; 1" keySplines="0.55 0.06 0.36 1" fill="freeze" /><g id="Group 9" transform="scale(-0.648,-0.648) translate(-14.477,-16.18)"><path stroke-linejoin="miter" stroke-linecap="butt" stroke-width="0" stroke-opacity="1" stroke="#000000" fill="#ffe962" fill-opacity="1" d="M11.42,27.84C11.8,21.75,7.23,20.99,6.09,15.28C5.33,9.19,9.68,3.49,14.46,1.19C20.79,-1.86,14.46,4.24,19.79,10.71C25.12,17.18,23.06,24.62,19.03,28.23C13.93,32.8,11.04,33.93,11.42,27.84L11.42,27.84Z" /></g></g></g><g opacity="0"><animate repeatCount="indefinite" attributeName="opacity" dur="1.1333333333333333s" begin="0.1s" calcMode="spline" values="0; 1; 1; 0" keyTimes="0; 0.088; 0.824; 1" keySplines="0.55 0.06 0.36 1; 0.65 0 0.36 1; 0.65 0 0.36 1" fill="freeze" /><g transform="translate(22.884,87.728)"><animateTransform repeatCount="indefinite" type="translate" attributeName="transform" dur="1.1s" begin="0s" calcMode="spline" values="22.884 87.728; 22.884 53.507" keyTimes="0; 1" keySplines="0.55 0.06 0.36 1" fill="freeze" /><g transform="scale(0.516,0.516)"><animateTransform repeatCount="indefinite" type="scale" attributeName="transform" dur="0.9s" begin="0.2s" calcMode="spline" values="0.516 0.516; 0.516 0.516; 0.516 0.516" keyTimes="0; 0.259; 1" keySplines="0.55 0.06 0.36 1; 0.65 0 0.36 1" fill="freeze" /><g id="Group 8" transform="translate(-14.477,-16.18)"><path stroke-linejoin="miter" stroke-linecap="butt" stroke-width="0" stroke-opacity="1" stroke="#000000" fill="#ffe962" fill-opacity="1" d="M11.42,27.84C11.8,21.75,7.23,20.99,6.09,15.28C5.33,9.19,9.68,3.49,14.46,1.19C20.79,-1.86,14.46,4.24,19.79,10.71C25.12,17.18,23.06,24.62,19.03,28.23C13.93,32.8,11.04,33.93,11.42,27.84L11.42,27.84Z" /></g></g></g></g><g opacity="0"><animate repeatCount="indefinite" attributeName="opacity" dur="1.1666666666666667s" begin="0.43333333333333335s" calcMode="spline" values="0; 1; 1; 0" keyTimes="0; 0.4; 0.886; 1" keySplines="0 0 1 1; 0 0 1 1; 0 0 1 1" fill="freeze" /><g transform="translate(77.795,66.524)"><animateTransform repeatCount="indefinite" type="translate" attributeName="transform" dur="0.9s" begin="0.9s" calcMode="spline" values="77.795 66.524; 77.795 -3.393" keyTimes="0; 1" keySplines="0.418 0.523 0 0.86" fill="freeze" /><g transform="scale(0.516,0.516)"><animateTransform repeatCount="indefinite" type="scale" attributeName="transform" dur="0.9s" begin="0.9s" calcMode="spline" values="0.516 0.516; 0.516 0.516; 0.516 0.516" keyTimes="0; 0.259; 1" keySplines="0.55 0.06 0.36 1; 0.55 0.06 0.36 1" fill="freeze" /><g id="Group 5" transform="translate(-14.477,-16.18)"><path stroke-linejoin="miter" stroke-linecap="butt" stroke-width="0" stroke-opacity="1" stroke="#000000" fill="#f58837" fill-opacity="1" d="M11.42,27.84C11.8,21.75,7.23,20.99,6.09,15.28C5.33,9.19,9.68,3.49,14.46,1.19C20.79,-1.86,14.46,4.24,19.79,10.71C25.12,17.18,23.06,24.62,19.03,28.23C13.93,32.8,11.04,33.93,11.42,27.84L11.42,27.84Z" /></g></g></g></g><g opacity="0"><animate repeatCount="indefinite" attributeName="opacity" dur="1.1666666666666667s" begin="0.16666666666666666s" calcMode="spline" values="0; 1; 1; 0" keyTimes="0; 0.114; 0.829; 1" keySplines="0 0 1 1; 0 0 1 1; 0 0 1 1" fill="freeze" /><g transform="translate(62.902,81.663)"><animateTransform repeatCount="indefinite" type="translate" attributeName="transform" dur="0.9s" begin="0.3s" calcMode="spline" values="62.902 81.663; 62.9 26.37" keyTimes="0; 1" keySplines="0 0.08 0.36 1" fill="freeze" /><g transform="scale(0.694,0.694)"><animateTransform repeatCount="indefinite" type="scale" attributeName="transform" dur="0.9s" begin="0.3s" calcMode="spline" values="0.694 0.694; 0.784 0.754; 0.694 0.694; 0.784 0.754; 0.694 0.694" keyTimes="0; 0.222; 0.481; 0.704; 1" keySplines="0.55 0.06 0.36 1; 0.65 0 0.36 1; 0.65 0 0.36 1; 0.65 0 0.36 1" fill="freeze" /><g id="Group 7" transform="translate(-14.477,-16.18)"><path stroke-linejoin="miter" stroke-linecap="butt" stroke-width="0" stroke-opacity="1" stroke="#000000" fill="#ffe962" fill-opacity="1" d="M11.42,27.84C11.8,21.75,7.23,20.99,6.09,15.28C5.33,9.19,9.68,3.49,14.46,1.19C20.79,-1.86,14.46,4.24,19.79,10.71C25.12,17.18,23.06,24.62,19.03,28.23C13.93,32.8,11.04,33.93,11.42,27.84L11.42,27.84Z" /></g></g></g></g><g opacity="0"><animate repeatCount="indefinite" attributeName="opacity" dur="1.7s" begin="0.2s" calcMode="spline" values="0; 1; 1; 0" keyTimes="0; 0.255; 0.882; 1" keySplines="0.55 0.06 0.36 1; 0.65 0 0.36 1; 0.65 0 0.36 1" fill="freeze" /><g transform="translate(14.48,51.333)"><animateTransform repeatCount="indefinite" type="translate" attributeName="transform" dur="1.233s" begin="0.633s" calcMode="spline" values="14.48 51.333; 14.48 9.107" keyTimes="0; 1" keySplines="0 0.08 0 0.86" fill="freeze" /><g transform="scale(0.694,0.694)"><animateTransform repeatCount="indefinite" type="scale" attributeName="transform" dur="1.233s" begin="0.633s" calcMode="spline" values="0.694 0.694; 0.784 0.754; 0.694 0.694; 0.784 0.754; 0.694 0.694" keyTimes="0; 0.324; 0.514; 0.676; 1" keySplines="0.55 0.06 0.36 1; 0.65 0 0.36 1; 0.65 0 0.36 1; 0.65 0 0.36 1" fill="freeze" /><g id="Group 2" transform="translate(-14.477,-16.18)"><path stroke-linejoin="miter" stroke-linecap="butt" stroke-width="0" stroke-opacity="1" stroke="#000000" fill="#f58738" fill-opacity="1" d="M11.42,27.84C11.8,21.75,7.23,20.99,6.09,15.28C5.33,9.19,9.68,3.49,14.46,1.19C20.79,-1.86,14.46,4.24,19.79,10.71C25.12,17.18,23.06,24.62,19.03,28.23C13.93,32.8,11.04,33.93,11.42,27.84L11.42,27.84Z" /></g></g></g></g><g id="Group 1" transform="matrix(1,0,0,1,0,0)"><path d="" /></g></g></g><g id="Nested Scene 2"><g transform="translate(50.876,111.992)"><animateTransform repeatCount="indefinite" type="translate" attributeName="transform" dur="1.233s" begin="0.133s" calcMode="spline" values="50.876 111.992; 50.876 94.992; 50.876 123.992; 50.876 111.992" keyTimes="0; 0.324; 0.649; 1" keySplines="0.55 0.06 0.36 1; 0.65 0 0.36 1; 0.65 0 0.36 1" fill="freeze" /><g transform="rotate(180)"><g transform="scale(0.816,0.816)"><animateTransform repeatCount="indefinite" type="scale" attributeName="transform" dur="2s" begin="0s" calcMode="spline" values="0.816 0.816; 0.393 0.322; 1 1.22; 0.816 0.816" keyTimes="0; 0.467; 0.667; 1" keySplines="0.55 0.06 0.36 1; 0.65 0 0.36 1; 0.65 0 0.36 1" fill="freeze" /><g transform="translate(-8.5,-8.5)"><use clip-path="url(#cp-17-17)" height="17" width="17" y="0" x="0" xlink:href="#precomp_Shape Layer - SVG_R6gNZvmrx3_16742c1d-9a73-4904-b9b8-46f2e2cb711f" href="#precomp_Shape Layer - SVG_R6gNZvmrx3_16742c1d-9a73-4904-b9b8-46f2e2cb711f" /></g></g></g></g></g><g id="Nested Scene 3"><g transform="translate(105.034,76.561)"><animateTransform repeatCount="indefinite" type="translate" attributeName="transform" dur="1.2s" begin="0.5s" calcMode="spline" values="105.034 76.561; 105.034 62.561; 105.034 89.561; 105.034 76.561" keyTimes="0; 0.333; 0.639; 1" keySplines="0.55 0.06 0.36 1; 0.65 0 0.36 1; 0.65 0 0.36 1" fill="freeze" /><g transform="rotate(180)"><g transform="scale(0.454,0.454)"><animateTransform repeatCount="indefinite" type="scale" attributeName="transform" dur="2s" begin="0s" calcMode="spline" values="0.454 0.454; 0.57 0.57; 0.832 0.832; 0.293 0.293; 0.454 0.454" keyTimes="0; 0.217; 0.467; 0.767; 1" keySplines="0.55 0.06 0.36 1; 0.65 0 0.36 1; 0.65 0 0.36 1; 0.65 0 0.36 1" fill="freeze" /><g transform="translate(-8.5,-8.5)"><use clip-path="url(#cp-17-17)" height="17" width="17" y="0" x="0" xlink:href="#precomp_Shape Layer - SVG_R6gNZvmrx3_16742c1d-9a73-4904-b9b8-46f2e2cb711f" href="#precomp_Shape Layer - SVG_R6gNZvmrx3_16742c1d-9a73-4904-b9b8-46f2e2cb711f" /></g></g></g></g></g></g></defs><g transform="matrix(1.561,0,0,1.561,-40.913,-65.204)" id="Nested Scene 1"><use clip-path="url(#cp-164-224)" height="224" width="164" y="0" x="0" xlink:href="#precomp_Shape Layer - SVG_NLQ1royEVj_8df41059-b0d0-4ed3-b0ff-655c343209f5" href="#precomp_Shape Layer - SVG_NLQ1royEVj_8df41059-b0d0-4ed3-b0ff-655c343209f5" /></g></svg>