<?xml version="1.0" encoding="utf-8"?><svg fill="none" viewBox="0 0 500 500" xmlns="http://www.w3.org/2000/svg"><defs><radialGradient id="null" gradientUnits="userSpaceOnUse" spreadMethod="pad" cx="-0.434" cy="15.963" r="52.848506904169014" fy="15.963" fx="-0.434"><stop offset="0%" stop-color="#fbb040" /><stop offset="15.2%" stop-color="#fbb040" /><stop offset="100%" stop-color="#fbb040" /></radialGradient></defs><g transform="matrix(1.79,0,0,1.79,-26.779,-173.316)" visibility="hidden" id="Flame Fill"><animate repeatCount="indefinite" begin="1.133s" calcMode="discrete" fill="freeze" dur="2.3s" values="visible; visible" keyTimes="0; 1" attributeName="visibility" /><g id="Group 1" transform="matrix(1,0,0,1,156.717,220.158)"><path fill="url(#null)" d="M7.969,-47.109L6.281,-47.683L6.812,-46.013C8.325,-41.187,8.128,-37.122,6.247,-34.554C4.572,-32.301,2.005,-31.806,0.134,-31.806C-2.175,-31.806,-5.203,-33.027,-6.745,-35.72C-8.427,-38.55,-7.965,-42.224,-5.594,-46.449L-5.202,-47.07C-3.646,-49.742,-1.315,-53.771,-0.958,-58.861C-0.596,-65.08,-3.123,-69.43,-9.71,-73.83L-11.292,-74.842L-11.055,-72.953C-10.233,-66.46,-12.605,-61.694,-17.538,-54.633C-21.388,-49.077,-25.632,-44.767,-29.421,-40.957C-30.762,-39.611,-31.855,-38.505,-32.874,-37.448L-34.514,-35.696C-43.271,-26.531,-58.046,-11.751,-58.046,16.183C-58.046,48.879,-32.148,74.842,-0.096,74.842C32.022,74.842,58.046,48.879,58.046,16.183C58.046,-12.739,39.815,-35.466,7.969,-47.109Z" /></g></g><g transform="matrix(1.79,0,0,1.79,-26.779,-173.316)" visibility="hidden" id="Flame"><animate repeatCount="indefinite" begin="0.867s" calcMode="discrete" fill="freeze" dur="2.3s" values="visible; visible" keyTimes="0; 1" attributeName="visibility" /><g id="Group 1" transform="matrix(1,0,0,1,155.717,220.157)" stroke-linejoin="miter" stroke-linecap="butt" stroke-width="3" stroke-opacity="1" stroke="#fbb040"><path d="M7.969,-47.109L6.281,-47.683L6.812,-46.013C8.325,-41.187,8.128,-37.122,6.247,-34.554C4.572,-32.301,2.005,-31.806,0.134,-31.806C-2.175,-31.806,-5.203,-33.027,-6.745,-35.72C-8.427,-38.55,-7.965,-42.224,-5.594,-46.449L-5.202,-47.07C-3.646,-49.742,-1.315,-53.771,-0.958,-58.861C-0.596,-65.08,-3.123,-69.43,-9.71,-73.83L-11.292,-74.842L-11.055,-72.953C-10.233,-66.46,-12.605,-61.694,-17.538,-54.633C-21.388,-49.077,-25.632,-44.767,-29.421,-40.957C-30.762,-39.611,-31.855,-38.505,-32.874,-37.448L-34.514,-35.696C-43.271,-26.531,-58.046,-11.751,-58.046,16.183C-58.046,48.879,-32.148,74.842,-0.096,74.842C32.022,74.842,58.046,48.879,58.046,16.183C58.046,-12.739,39.815,-35.466,7.969,-47.109Z" /></g></g><g id="Circle"><animate repeatCount="indefinite" begin="0s" calcMode="discrete" fill="freeze" dur="1.333s" values="visible; hidden" keyTimes="0; 1" attributeName="visibility" /><g transform="translate(252.039,250.281)"><g transform="rotate(0)"><animateTransform repeatCount="indefinite" type="rotate" attributeName="transform" dur="0.9s" begin="0s" calcMode="spline" values="0; 539.78" keyTimes="0; 1" keySplines="0 0 1 1" fill="freeze" /><g transform="scale(0.666,0.666) translate(21.5,-8.863)"><g id="Ellipse 1" transform="matrix(1,0,0,1,-21.5,8.863)"><ellipse ry="156.4415" rx="156.4415" cy="0" cx="0" stroke-linejoin="miter" stroke-linecap="butt" stroke-width="8" stroke-opacity="1" stroke="#fbb040" /></g></g></g></g></g><g opacity="0" visibility="hidden" id="Flame White"><animate repeatCount="indefinite" begin="1.3s" calcMode="discrete" fill="freeze" dur="2.133s" values="visible; visible" keyTimes="0; 1" attributeName="visibility" /><animate repeatCount="indefinite" attributeName="opacity" dur="0.4666666666666667s" begin="1.5333333333333334s" calcMode="spline" values="0; 1" keyTimes="0; 1" keySplines="0 0 1 1" fill="freeze" /><g transform="translate(252,359)"><g transform="scale(0.92,0.92)"><animateTransform repeatCount="indefinite" type="scale" attributeName="transform" dur="0.467s" begin="1.533s" calcMode="spline" values="0.92 0.92; 1 1; 0.92 0.92" keyTimes="0; 0.5; 1" keySplines="0.333 0 0.667 1; 0.333 0 0.667 1" fill="freeze" /><g transform="translate(-156.163,-294.313)"><g id="Group 1" transform="matrix(1,0,0,1,155.717,220.157)"><path fill="#ffffff" fill-opacity="1" d="M7.969,-47.109L6.281,-47.683L6.812,-46.013C8.325,-41.187,8.128,-37.122,6.247,-34.554C4.572,-32.301,2.005,-31.806,0.134,-31.806C-2.175,-31.806,-5.203,-33.027,-6.745,-35.72C-8.427,-38.55,-7.965,-42.224,-5.594,-46.449L-5.202,-47.07C-3.646,-49.742,-1.315,-53.771,-0.958,-58.861C-0.596,-65.08,-3.123,-69.43,-9.71,-73.83L-11.292,-74.842L-11.055,-72.953C-10.233,-66.46,-12.605,-61.694,-17.538,-54.633C-21.388,-49.077,-25.632,-44.767,-29.421,-40.957C-30.762,-39.611,-31.855,-38.505,-32.874,-37.448L-34.514,-35.696C-43.271,-26.531,-58.046,-11.751,-58.046,16.183C-58.046,48.879,-32.148,74.842,-0.096,74.842C32.022,74.842,58.046,48.879,58.046,16.183C58.046,-12.739,39.815,-35.466,7.969,-47.109Z" /></g></g></g></g></g></svg>